<?xml version="1.0" standalone="no"?><!DOCTYPE svg PUBLIC "-//W3C//DTD SVG 1.1//EN" "http://www.w3.org/Graphics/SVG/1.1/DTD/svg11.dtd"><svg t="1531865403933" class="icon" style="" viewBox="0 0 1024 1024" version="1.1" xmlns="http://www.w3.org/2000/svg" p-id="6329" xmlns:xlink="http://www.w3.org/1999/xlink" width="40" height="40"><defs><style type="text/css"></style></defs><path d="M 907.646 556.779 c 0 -155.89 -90.1673 -290.729 -221.185 -355.21 a 172.308 172.308 0 0 0 -344.434 -2.14047 C 208.558 262.977 116.337 399.09 116.337 556.779 c -22.2181 0 -36.3879 17.3164 -32.5566 38.614 l 65.113 357.983 c 3.82073 21.0194 24.6154 38.6247 46.3303 38.6247 h 633.578 c 21.7043 0 42.4455 -17.295 46.3197 -38.6247 l 65.1237 -357.983 c 3.77793 -20.9872 -10.7023 -38.614 -32.5671 -38.614 Z M 514.228 96.386 a 107.677 107.677 0 1 1 -107.665 107.665 a 107.665 107.665 0 0 1 107.665 -107.665 Z M 345.657 264.177 c 25.6214 66.9004 90.5311 114.515 166.336 114.515 s 140.725 -47.6362 166.346 -114.515 c 103.887 58.6489 169.921 168.83 169.964 292.474 l -43.8047 -0.0749166 c -73.9853 -0.246154 -158.694 -0.460201 -292.174 0.192642 c -66.5044 -0.353177 -121.793 -0.460201 -169.439 -0.460201 c -52.5378 0 -95.8181 0.149833 -134.572 0.267559 l -32.5566 0.0749166 c -0.0535116 -123.644 65.9693 -233.825 169.889 -292.474 Z m 472.883 668.457 h -71.9305 L 762.758 747.644 a 29.6777 29.6777 0 0 0 -59.1305 -5.17993 l -16.6957 190.17 H 612.925 l 6.52843 -186.863 a 29.7065 29.7065 0 1 0 -59.3766 -2.06556 l -6.59264 188.929 h -77.4743 L 469.407 743.706 a 29.6777 29.6777 0 1 0 -59.3123 2.06556 l 6.52843 186.863 h -75.6548 l -16.6421 -190.138 a 29.6777 29.6777 0 0 0 -59.109 5.14782 l 16.1819 184.969 h -75.9866 L 147.887 616.112 h 728.187 Z m 0 0" p-id="6330" fill="#1296db"></path></svg>